<?xml version="1.0" standalone="no"?>
<!DOCTYPE svg PUBLIC "-//W3C//DTD SVG 20010904//EN"
 "http://www.w3.org/TR/2001/REC-SVG-20010904/DTD/svg10.dtd">
<svg version="1.0" xmlns="http://www.w3.org/2000/svg"
 width="400.000000pt" height="400.000000pt" viewBox="0 0 400.000000 400.000000"
 preserveAspectRatio="xMidYMid meet">
<metadata>
Created by potrace 1.11, written by Peter Selinger 2001-2013
</metadata>
<g transform="translate(0.000000,400.000000) scale(0.100000,-0.100000)"
fill="#000000" stroke="none">
<path d="M1930 2765 c0 -1210 0 -1234 -19 -1245 -27 -14 -124 -13 -143 3 -12
9 -67 302 -224 1192 -114 649 -209 1182 -211 1184 -6 8 -113 -32 -125 -46 -8
-10 -8 -31 1 -81 79 -453 220 -1253 297 -1687 102 -572 99 -547 78 -562 -23
-17 -135 -17 -157 0 -9 6 -37 68 -62 137 -26 69 -89 242 -140 385 -474 1307
-532 1460 -551 1463 -12 2 -36 -14 -63 -42 l-43 -44 25 -74 c14 -40 64 -179
112 -308 47 -129 108 -296 135 -370 26 -74 110 -304 185 -510 234 -641 226
-617 209 -635 -19 -18 -74 -20 -97 -2 -9 6 -49 80 -88 162 -39 83 -100 211
-136 285 -35 74 -132 277 -214 450 -82 173 -191 403 -242 510 -112 235 -113
235 -181 128 -107 -167 -205 -404 -252 -610 -23 -102 -24 -122 -24 -465 l0
-359 30 -119 c153 -622 591 -1138 1180 -1388 115 -48 248 -90 265 -83 27 10
16 42 -26 75 -103 83 -215 260 -260 411 -20 69 -23 101 -27 388 -3 235 -1 316
8 327 11 13 126 15 829 15 660 0 821 -3 835 -13 17 -12 18 -33 14 -318 -5
-267 -8 -313 -26 -380 -43 -160 -122 -293 -244 -409 -63 -60 -67 -67 -54 -85
13 -19 17 -18 128 18 421 139 807 439 1056 820 116 178 212 399 267 618 24 96
25 106 25 486 0 377 -1 391 -24 488 -34 140 -90 291 -157 423 -83 164 -129
233 -154 230 -23 -3 -13 17 -291 -568 -114 -239 -242 -507 -284 -595 -42 -88
-105 -221 -140 -295 -35 -74 -67 -139 -71 -144 -22 -25 -119 -12 -119 16 0 9
605 1681 671 1857 8 20 3 30 -35 67 -47 47 -70 54 -85 26 -10 -18 -58 -151
-476 -1302 -131 -360 -245 -661 -254 -667 -16 -14 -109 -17 -150 -6 -22 6 -23
9 -18 62 4 31 20 130 36 221 16 91 48 269 70 395 23 127 70 397 106 600 36
204 84 474 106 600 22 127 49 279 60 339 11 60 16 113 12 117 -5 5 -36 20 -70
33 l-61 24 -16 -87 c-38 -214 -360 -2040 -380 -2159 -13 -73 -26 -135 -29
-138 -10 -11 -94 -17 -131 -10 l-36 7 0 1239 0 1240 -75 0 -75 0 0 -1235z"/>
</g>
</svg>
