<?xml version="1.0" encoding="UTF-8" standalone="no"?>
<!DOCTYPE svg PUBLIC "-//W3C//DTD SVG 1.1//EN" "http://www.w3.org/Graphics/SVG/1.1/DTD/svg11.dtd">
<svg width="100%" height="100%" viewBox="0 0 467 593" version="1.1" 
    xmlns="http://www.w3.org/2000/svg" 
    xmlns:xlink="http://www.w3.org/1999/xlink" xml:space="preserve" 
    xmlns:serif="http://www.serif.com/" style="fill-rule:evenodd;clip-rule:evenodd;stroke-linejoin:round;stroke-miterlimit:2;">
    <g id="Shuttlecock" transform="matrix(0.965827,0,0,0.953531,-276.588,-208.309)">
        <rect x="286.374" y="218.461" width="483.393" height="621.767" style="fill:none;"/>
        <clipPath id="_clip1">
            <rect x="286.374" y="218.461" width="483.393" height="621.767"/>
        </clipPath>
        <g clip-path="url(#_clip1)">
            <g id="Shuttlecock1" serif:id="Shuttlecock" transform="matrix(1.03538,0,0,1.04873,-26.8487,-40.4639)">
                <g transform="matrix(3.21243,0,0,3.35243,-678.074,-621.806)">
                    <path d="M415.23,381.548L340.384,381.548L340.384,404.812C340.384,422.099 355.008,436.112 373.048,436.112C376.568,436.112 380.145,436.112 383.651,436.112C401.092,436.112 415.23,422.564 415.23,405.852C415.23,393.273 415.23,381.548 415.23,381.548Z"/>
                </g>
                <g transform="matrix(3.08618,0,0,3.08618,-630.572,-515.619)">
                    <path d="M374.794,254.239C374.575,254.517 374.646,256.422 374.646,256.965L374.646,366.914C374.646,367.663 374.039,368.27 373.29,368.27L367.843,368.27C367.185,368.27 366.622,367.797 366.507,367.149L347.611,259.995C347.611,258.099 359.63,247.159 359.63,247.159C359.63,247.159 372.472,251.917 374.794,254.239Z"/>
                </g>
                <g transform="matrix(-3.08618,0,0,3.08618,1701.88,-515.619)">
                    <path d="M374.794,254.239C374.575,254.517 374.646,256.422 374.646,256.965L374.646,366.914C374.646,367.663 374.039,368.27 373.29,368.27L367.843,368.27C367.185,368.27 366.622,367.797 366.507,367.149L347.611,259.995C347.611,258.099 359.63,247.159 359.63,247.159C359.63,247.159 372.472,251.917 374.794,254.239Z"/>
                </g>
                <g transform="matrix(3.08618,0,0,3.08618,-630.572,-515.619)">
                    <path d="M341.3,262.844L359.609,366.678C359.755,367.508 359.116,368.27 358.273,368.27L352.171,368.27C351.601,368.27 351.091,367.914 350.897,367.377L318.452,278.242C318.452,271.831 323.877,260.132 323.877,260.132C323.877,260.132 339.541,261.086 341.3,262.844Z"/>
                </g>
                <g transform="matrix(-3.08618,0,0,3.08618,1702.6,-515.619)">
                    <path d="M341.3,262.844L359.609,366.678C359.755,367.508 359.116,368.27 358.273,368.27L352.171,368.27C351.601,368.27 351.091,367.914 350.897,367.377L318.452,278.242C318.452,271.831 323.877,260.132 323.877,260.132C323.877,260.132 339.541,261.086 341.3,262.844Z"/>
                </g>
                <g transform="matrix(3.08618,0,0,3.08618,-630.572,-515.619)">
                    <path d="M313.062,283.069L343.412,366.45C343.733,367.334 343.079,368.27 342.136,368.27L338.932,368.27C338.912,368.27 338.891,368.269 338.87,368.268L307.994,305.08L303.252,295.121C303.166,294.938 303.046,294.787 302.906,294.668L302.521,293.881C301.893,290.424 302.6,279.61 302.6,279.61C302.6,279.61 311.988,281.995 313.062,283.069Z"/>
                </g>
                <g transform="matrix(-3.08618,0,0,3.08618,1702.6,-515.619)">
                    <path d="M313.062,283.069L343.412,366.45C343.733,367.334 343.079,368.27 342.136,368.27L338.932,368.27C338.912,368.27 338.891,368.269 338.87,368.268L307.994,305.08L303.252,295.121C303.166,294.938 303.046,294.787 302.906,294.668L302.521,293.881C301.893,290.424 302.6,279.61 302.6,279.61C302.6,279.61 310.189,282.077 313.062,283.069Z"/>
                </g>
            </g>
        </g>
    </g>
</svg>
