<?xml version="1.0" encoding="UTF-8" standalone="no"?>
<!DOCTYPE svg PUBLIC "-//W3C//DTD SVG 1.1//EN" "http://www.w3.org/Graphics/SVG/1.1/DTD/svg11.dtd">
<svg width="100%" height="100%" viewBox="0 0 76032 34560" version="1.1" xmlns="http://www.w3.org/2000/svg" xmlns:xlink="http://www.w3.org/1999/xlink" xml:space="preserve" xmlns:serif="http://www.serif.com/" style="fill-rule:evenodd;clip-rule:evenodd;stroke-linejoin:round;stroke-miterlimit:2;">
    <g id="Court-Surface" serif:id="Court Surface" transform="matrix(15.4723,0,0,13.5692,0,0)">
        <rect x="0" y="0" width="4914.08" height="2546.94" style="fill:rgb(67,134,51);"/>
    </g>
    <g id="Doubles-Service-Court" serif:id="Doubles Service Court">
        <g id="Even-Service-Court-LS" serif:id="Even Service Court LS" transform="matrix(0.829003,0,0,1.20647,-36600.5,14013.2)">
            <rect x="49347.4" y="2707.74" width="26684.6" height="14322.8" style="fill:rgb(240,180,0);"/>
        </g>
        <g id="Even-Service-Court-RS" serif:id="Even Service Court RS" transform="matrix(0.824466,0,0,1.16816,8788.1,-2863.94)">
            <rect x="49347.4" y="2707.74" width="26684.6" height="14322.8" style="fill:rgb(240,180,0);"/>
        </g>
        <g id="Odd-Service-Court-LS" serif:id="Odd Service Court LS" transform="matrix(0.82442,0,0,1.18793,-36249.6,-3067.02)">
            <rect x="49347.4" y="2707.74" width="26684.6" height="14322.8" style="fill:rgb(240,180,0);"/>
        </g>
        <g id="Odd-Service-Court-RS" serif:id="Odd Service Court RS" transform="matrix(0.82442,0,0,1.21457,8791.57,13875.3)">
            <rect x="49347.4" y="2707.74" width="26684.6" height="14322.8" style="fill:rgb(240,180,0);"/>
        </g>
    </g>
    <g id="Singles-Service-Court" serif:id="Singles Service Court">
        <g id="Even-Service-Court-LS1" serif:id="Even Service Court LS" transform="matrix(0.990561,0,0,1.02439,-48884.1,14506.2)">
            <rect x="49347.4" y="2707.74" width="26684.6" height="14322.8" style="fill:rgb(240,180,0);"/>
        </g>
        <g id="Even-Service-Court-RS1" serif:id="Even Service Court RS" transform="matrix(0.990561,0,0,1.00697,591.744,-118.752)">
            <rect x="49347.4" y="2707.74" width="26684.6" height="14322.8" style="fill:rgb(240,180,0);"/>
        </g>
        <g id="Odd-Service-Court-LS1" serif:id="Odd Service Court LS" transform="matrix(0.990561,0,0,1.00697,-48881.6,14.6949)">
            <rect x="49347.4" y="2707.74" width="26684.6" height="14322.8" style="fill:rgb(240,180,0);"/>
        </g>
        <g id="Odd-Service-Court-RS1" serif:id="Odd Service Court RS" transform="matrix(0.990561,0,0,1.02378,592.96,14391.9)">
            <rect x="49347.4" y="2707.74" width="26684.6" height="14322.8" style="fill:rgb(240,180,0);"/>
        </g>
    </g>
    <g transform="matrix(15.4723,0,0,13.5692,0,0)">
        <g id="Doubles-Area-of-Play" serif:id="Doubles Area of Play">
            <rect id="Court-Area" serif:id="Court Area" x="0" y="0" width="4914.08" height="2546.94" style="fill:rgb(240,180,0);"/>
        </g>
    </g>
    <g transform="matrix(15.4723,0,0,11.4719,0,2728.64)">
        <g id="Singles-Area-of-Play" serif:id="Singles Area of Play">
            <rect id="Court-Area1" serif:id="Court Area" x="0" y="0" width="4914.08" height="2546.94" style="fill:rgb(240,180,0);"/>
        </g>
    </g>
    <g id="Court-Lines" serif:id="Court Lines" transform="matrix(0.925294,0,0,0.925294,5680.03,2581.83)">
        <g id="Back-Boundary-Line" serif:id="Back Boundary Line" transform="matrix(0.0573265,0,0,2.02261,-6183.75,-5091.85)">
            <rect x="787.257" y="1137.92" width="4702.69" height="18466.4" style="fill:white;"/>
        </g>
        <g id="Long-Service-Line" serif:id="Long Service Line" transform="matrix(0.0573265,0,0,2.02261,-1527.22,-5091.85)">
            <rect x="787.257" y="1137.92" width="4702.69" height="18466.4" style="fill:white;"/>
        </g>
        <g id="Long-Service-Line1" serif:id="Long Service Line" transform="matrix(0.0573265,0,0,2.02261,70926,-5091.85)">
            <rect x="787.257" y="1137.92" width="4702.69" height="18466.4" style="fill:white;"/>
        </g>
        <g id="Short-Service-Line" serif:id="Short Service Line" transform="matrix(0.0573265,0,0,2.02261,47153.1,-5091.85)">
            <rect x="787.257" y="1137.92" width="4702.69" height="18466.4" style="fill:white;"/>
        </g>
        <g id="Short-Service-Line1" serif:id="Short Service Line" transform="matrix(0.0573265,0,0,2.02261,22245.6,-5091.85)">
            <rect x="787.257" y="1137.92" width="4702.69" height="18466.4" style="fill:white;"/>
        </g>
        <g id="Back-Boundary-Line1" serif:id="Back Boundary Line" transform="matrix(0.0573265,0,0,2.02261,75717.3,-5091.85)">
            <rect x="787.257" y="1137.92" width="4702.69" height="18466.4" style="fill:white;"/>
        </g>
        <g id="Side-Line-for-Doubles" serif:id="Side Line for Doubles" transform="matrix(-3.74756e-05,0.0573265,-4.45001,-0.00290907,81099.5,-2832.1)">
            <rect x="787.257" y="1137.92" width="4702.69" height="18466.4" style="fill:white;"/>
        </g>
        <g id="Side-Line-for-Singles" serif:id="Side Line for Singles" transform="matrix(-3.74756e-05,0.0573265,-4.45001,-0.00290907,81098.4,-13.6772)">
            <rect x="787.257" y="1137.92" width="4702.69" height="18466.4" style="fill:white;"/>
        </g>
        <g id="Centre-Line" serif:id="Centre Line" transform="matrix(3.74756e-05,-0.0573265,-1.56169,-0.00102091,24202.6,15950)">
            <rect x="787.257" y="1137.92" width="4702.69" height="18466.4" style="fill:white;"/>
        </g>
        <g id="Centre-Line1" serif:id="Centre Line" transform="matrix(3.74756e-05,-0.0573265,-1.56169,-0.00102091,77808.9,15805.8)">
            <rect x="787.257" y="1137.92" width="4702.69" height="18466.4" style="fill:white;"/>
        </g>
        <g id="Side-Line-for-Singles1" serif:id="Side Line for Singles" transform="matrix(-3.74756e-05,0.0573265,-4.45001,-0.00290907,80826.2,31430.2)">
            <rect x="787.257" y="1137.92" width="4702.69" height="18466.4" style="fill:white;"/>
        </g>
        <g id="Side-Line-for-Doubles1" serif:id="Side Line for Doubles" transform="matrix(-3.74756e-05,0.0573265,-4.45001,-0.00290907,81101.1,34272.4)">
            <rect x="787.257" y="1137.92" width="4702.69" height="18466.4" style="fill:white;"/>
        </g>
        <g id="Net" transform="matrix(0.0573265,0,0,2.02261,34632,-5091.85)">
            <path d="M787.257,18665.3L3138.6,18665.3L3138.6,18677.4L5489.94,18677.4L5489.94,19410.4L3138.6,19410.4L3138.6,19398.4L787.257,19398.4L787.257,18665.3ZM787.257,17399L3138.6,17399L3138.6,17411.1L5489.94,17411.1L5489.94,18144.2L3138.6,18144.2L3138.6,18132.1L787.257,18132.1L787.257,17399ZM787.257,16132.8L3138.6,16132.8L3138.6,16144.9L5489.94,16144.9L5489.94,16878L3138.6,16878L3138.6,16865.9L787.257,16865.9L787.257,16132.8ZM787.257,14866.6L3138.6,14866.6L3138.6,14878.7L5489.94,14878.7L5489.94,15611.7L3138.6,15611.7L3138.6,15599.7L787.257,15599.7L787.257,14866.6ZM787.257,13600.4L3138.6,13600.4L3138.6,13612.4L5489.94,13612.4L5489.94,14345.5L3138.6,14345.5L3138.6,14333.4L787.257,14333.4L787.257,13600.4ZM787.257,12334.1L3138.6,12334.1L3138.6,12346.2L5489.94,12346.2L5489.94,13079.2L3138.6,13079.2L3138.6,13067.2L787.257,13067.2L787.257,12334.1ZM787.257,11067.9L3138.6,11067.9L3138.6,11079.9L5489.94,11079.9L5489.94,11813L3138.6,11813L3138.6,11801L787.257,11801L787.257,11067.9ZM787.257,9801.65L3138.6,9801.65L3138.6,9813.71L5489.94,9813.71L5489.94,10546.8L3138.6,10546.8L3138.6,10534.7L787.257,10534.7L787.257,9801.65ZM787.257,8535.41L3138.6,8535.41L3138.6,8547.49L5489.94,8547.49L5489.94,9280.57L3138.6,9280.57L3138.6,9268.5L787.257,9268.5L787.257,8535.41ZM787.257,7269.17L3138.6,7269.17L3138.6,7281.25L5489.94,7281.25L5489.94,8014.33L3138.6,8014.33L3138.6,8002.27L787.257,8002.27L787.257,7269.17ZM787.257,6002.92L3138.6,6002.92L3138.6,6015.02L5489.94,6015.02L5489.94,6748.09L3138.6,6748.09L3138.6,6736.01L787.257,6736.01L787.257,6002.92ZM787.257,4736.69L3138.6,4736.69L3138.6,4748.78L5489.94,4748.78L5489.94,5481.86L3138.6,5481.86L3138.6,5469.76L787.257,5469.76L787.257,4736.69ZM787.257,3470.44L3138.6,3470.44L3138.6,3482.54L5489.94,3482.54L5489.94,4215.62L3138.6,4215.62L3138.6,4203.53L787.257,4203.53L787.257,3470.44ZM787.257,2204.21L3138.6,2204.21L3138.6,2216.31L5489.94,2216.31L5489.94,2949.39L3138.6,2949.39L3138.6,2937.29L787.257,2937.29L787.257,2204.21ZM5489.94,1683.15L3138.6,1683.15L3138.6,1671.06L787.257,1671.06L787.257,1137.92L5489.94,1137.92L5489.94,1683.15Z" style="fill:white;"/>
        </g>
    </g>
    <g id="Players">
        <g id="Player-Even-LS" serif:id="Player Even LS">
            <g id="Player" transform="matrix(0.916516,0,0,0.916516,1301.15,1666.72)">
                <path d="M17764,25569.6C17764,25058 17136.2,24642.6 16624.6,24642.6C16102.7,24965 15494.4,25186.7 14929.4,25186.7C14364.3,25186.7 13727.1,24922.5 13234.1,24642.6C12722.5,24642.6 12094.7,25058 12094.7,25569.6L12094.7,27423.5C12094.7,27935.1 12510.1,28350.4 13021.7,28350.4L16837,28350.4C17348.6,28350.4 17764,27935.1 17764,27423.5L17764,25569.6ZM14929.4,21252.1C15865,21252.1 16624.6,22011.7 16624.6,22947.3C16624.6,23883 15865,24642.6 14929.4,24642.6C13993.7,24642.6 13234.1,23883 13234.1,22947.3C13234.1,22011.7 13993.7,21252.1 14929.4,21252.1Z" style="fill:rgb(209,0,3);"/>
            </g>
            <g id="Shuttlecock" transform="matrix(5.73003,0,0,5.73003,15850.2,21282.1)">
                <g transform="matrix(3.21243,0,0,3.35243,-678.074,-621.806)">
                    <path d="M415.23,381.548L340.384,381.548L340.384,404.812C340.384,422.099 355.008,436.112 373.048,436.112C376.568,436.112 380.145,436.112 383.651,436.112C401.092,436.112 415.23,422.564 415.23,405.852C415.23,393.273 415.23,381.548 415.23,381.548Z"/>
                </g>
                <g transform="matrix(3.08618,0,0,3.08618,-630.572,-515.619)">
                    <path d="M374.794,254.239C374.575,254.517 374.646,256.422 374.646,256.965L374.646,366.914C374.646,367.663 374.039,368.27 373.29,368.27L367.843,368.27C367.185,368.27 366.622,367.797 366.507,367.149L347.611,259.995C347.611,258.099 359.63,247.159 359.63,247.159C359.63,247.159 372.472,251.917 374.794,254.239Z"/>
                </g>
                <g transform="matrix(-3.08618,0,0,3.08618,1701.88,-515.619)">
                    <path d="M374.794,254.239C374.575,254.517 374.646,256.422 374.646,256.965L374.646,366.914C374.646,367.663 374.039,368.27 373.29,368.27L367.843,368.27C367.185,368.27 366.622,367.797 366.507,367.149L347.611,259.995C347.611,258.099 359.63,247.159 359.63,247.159C359.63,247.159 372.472,251.917 374.794,254.239Z"/>
                </g>
                <g transform="matrix(3.08618,0,0,3.08618,-630.572,-515.619)">
                    <path d="M341.3,262.844L359.609,366.678C359.755,367.508 359.116,368.27 358.273,368.27L352.171,368.27C351.601,368.27 351.091,367.914 350.897,367.377L318.452,278.242C318.452,271.831 323.877,260.132 323.877,260.132C323.877,260.132 339.541,261.086 341.3,262.844Z"/>
                </g>
                <g transform="matrix(-3.08618,0,0,3.08618,1702.6,-515.619)">
                    <path d="M341.3,262.844L359.609,366.678C359.755,367.508 359.116,368.27 358.273,368.27L352.171,368.27C351.601,368.27 351.091,367.914 350.897,367.377L318.452,278.242C318.452,271.831 323.877,260.132 323.877,260.132C323.877,260.132 339.541,261.086 341.3,262.844Z"/>
                </g>
                <g transform="matrix(3.08618,0,0,3.08618,-630.572,-515.619)">
                    <path d="M313.062,283.069L343.412,366.45C343.733,367.334 343.079,368.27 342.136,368.27L338.932,368.27C338.912,368.27 338.891,368.269 338.87,368.268L307.994,305.08L303.252,295.121C303.166,294.938 303.046,294.787 302.906,294.668L302.521,293.881C301.893,290.424 302.6,279.61 302.6,279.61C302.6,279.61 311.988,281.995 313.062,283.069Z"/>
                </g>
                <g transform="matrix(-3.08618,0,0,3.08618,1702.6,-515.619)">
                    <path d="M313.062,283.069L343.412,366.45C343.733,367.334 343.079,368.27 342.136,368.27L338.932,368.27C338.912,368.27 338.891,368.269 338.87,368.268L307.994,305.08L303.252,295.121C303.166,294.938 303.046,294.787 302.906,294.668L302.521,293.881C301.893,290.424 302.6,279.61 302.6,279.61C302.6,279.61 310.189,282.077 313.062,283.069Z"/>
                </g>
            </g>
        </g>
        <g id="Player-Odd-LS" serif:id="Player Odd LS">
            <g id="Player1" serif:id="Player" transform="matrix(0.916516,0,0,0.916516,1301.15,-12961.7)">
                <path d="M17764,25569.6C17764,25058 17136.2,24642.6 16624.6,24642.6C16102.7,24965 15494.4,25186.7 14929.4,25186.7C14364.3,25186.7 13727.1,24922.5 13234.1,24642.6C12722.5,24642.6 12094.7,25058 12094.7,25569.6L12094.7,27423.5C12094.7,27935.1 12510.1,28350.4 13021.7,28350.4L16837,28350.4C17348.6,28350.4 17764,27935.1 17764,27423.5L17764,25569.6ZM14929.4,21252.1C15865,21252.1 16624.6,22011.7 16624.6,22947.3C16624.6,23883 15865,24642.6 14929.4,24642.6C13993.7,24642.6 13234.1,23883 13234.1,22947.3C13234.1,22011.7 13993.7,21252.1 14929.4,21252.1Z" style="fill:rgb(209,0,3);"/>
            </g>
            <g id="Shuttlecock1" serif:id="Shuttlecock" transform="matrix(5.73003,0,0,5.73003,15850.2,6653.66)">
                <g transform="matrix(3.21243,0,0,3.35243,-678.074,-621.806)">
                    <path d="M415.23,381.548L340.384,381.548L340.384,404.812C340.384,422.099 355.008,436.112 373.048,436.112C376.568,436.112 380.145,436.112 383.651,436.112C401.092,436.112 415.23,422.564 415.23,405.852C415.23,393.273 415.23,381.548 415.23,381.548Z"/>
                </g>
                <g transform="matrix(3.08618,0,0,3.08618,-630.572,-515.619)">
                    <path d="M374.794,254.239C374.575,254.517 374.646,256.422 374.646,256.965L374.646,366.914C374.646,367.663 374.039,368.27 373.29,368.27L367.843,368.27C367.185,368.27 366.622,367.797 366.507,367.149L347.611,259.995C347.611,258.099 359.63,247.159 359.63,247.159C359.63,247.159 372.472,251.917 374.794,254.239Z"/>
                </g>
                <g transform="matrix(-3.08618,0,0,3.08618,1701.88,-515.619)">
                    <path d="M374.794,254.239C374.575,254.517 374.646,256.422 374.646,256.965L374.646,366.914C374.646,367.663 374.039,368.27 373.29,368.27L367.843,368.27C367.185,368.27 366.622,367.797 366.507,367.149L347.611,259.995C347.611,258.099 359.63,247.159 359.63,247.159C359.63,247.159 372.472,251.917 374.794,254.239Z"/>
                </g>
                <g transform="matrix(3.08618,0,0,3.08618,-630.572,-515.619)">
                    <path d="M341.3,262.844L359.609,366.678C359.755,367.508 359.116,368.27 358.273,368.27L352.171,368.27C351.601,368.27 351.091,367.914 350.897,367.377L318.452,278.242C318.452,271.831 323.877,260.132 323.877,260.132C323.877,260.132 339.541,261.086 341.3,262.844Z"/>
                </g>
                <g transform="matrix(-3.08618,0,0,3.08618,1702.6,-515.619)">
                    <path d="M341.3,262.844L359.609,366.678C359.755,367.508 359.116,368.27 358.273,368.27L352.171,368.27C351.601,368.27 351.091,367.914 350.897,367.377L318.452,278.242C318.452,271.831 323.877,260.132 323.877,260.132C323.877,260.132 339.541,261.086 341.3,262.844Z"/>
                </g>
                <g transform="matrix(3.08618,0,0,3.08618,-630.572,-515.619)">
                    <path d="M313.062,283.069L343.412,366.45C343.733,367.334 343.079,368.27 342.136,368.27L338.932,368.27C338.912,368.27 338.891,368.269 338.87,368.268L307.994,305.08L303.252,295.121C303.166,294.938 303.046,294.787 302.906,294.668L302.521,293.881C301.893,290.424 302.6,279.61 302.6,279.61C302.6,279.61 311.988,281.995 313.062,283.069Z"/>
                </g>
                <g transform="matrix(-3.08618,0,0,3.08618,1702.6,-515.619)">
                    <path d="M313.062,283.069L343.412,366.45C343.733,367.334 343.079,368.27 342.136,368.27L338.932,368.27C338.912,368.27 338.891,368.269 338.87,368.268L307.994,305.08L303.252,295.121C303.166,294.938 303.046,294.787 302.906,294.668L302.521,293.881C301.893,290.424 302.6,279.61 302.6,279.61C302.6,279.61 310.189,282.077 313.062,283.069Z"/>
                </g>
            </g>
        </g>
        <g id="Player-Odd-RS" serif:id="Player Odd RS">
            <g id="Player2" serif:id="Player" transform="matrix(0.916516,0,0,0.916516,47247.9,1666.72)">
                <path d="M17764,25569.6C17764,25058 17136.2,24642.6 16624.6,24642.6C16102.7,24965 15494.4,25186.7 14929.4,25186.7C14364.3,25186.7 13727.1,24922.5 13234.1,24642.6C12722.5,24642.6 12094.7,25058 12094.7,25569.6L12094.7,27423.5C12094.7,27935.1 12510.1,28350.4 13021.7,28350.4L16837,28350.4C17348.6,28350.4 17764,27935.1 17764,27423.5L17764,25569.6ZM14929.4,21252.1C15865,21252.1 16624.6,22011.7 16624.6,22947.3C16624.6,23883 15865,24642.6 14929.4,24642.6C13993.7,24642.6 13234.1,23883 13234.1,22947.3C13234.1,22011.7 13993.7,21252.1 14929.4,21252.1Z" style="fill:rgb(10,36,99);"/>
            </g>
            <g id="Shuttlecock2" serif:id="Shuttlecock" transform="matrix(5.73003,0,0,5.73003,53922.1,21282.1)">
                <g transform="matrix(3.21243,0,0,3.35243,-678.074,-621.806)">
                    <path d="M415.23,381.548L340.384,381.548L340.384,404.812C340.384,422.099 355.008,436.112 373.048,436.112C376.568,436.112 380.145,436.112 383.651,436.112C401.092,436.112 415.23,422.564 415.23,405.852C415.23,393.273 415.23,381.548 415.23,381.548Z"/>
                </g>
                <g transform="matrix(3.08618,0,0,3.08618,-630.572,-515.619)">
                    <path d="M374.794,254.239C374.575,254.517 374.646,256.422 374.646,256.965L374.646,366.914C374.646,367.663 374.039,368.27 373.29,368.27L367.843,368.27C367.185,368.27 366.622,367.797 366.507,367.149L347.611,259.995C347.611,258.099 359.63,247.159 359.63,247.159C359.63,247.159 372.472,251.917 374.794,254.239Z"/>
                </g>
                <g transform="matrix(-3.08618,0,0,3.08618,1701.88,-515.619)">
                    <path d="M374.794,254.239C374.575,254.517 374.646,256.422 374.646,256.965L374.646,366.914C374.646,367.663 374.039,368.27 373.29,368.27L367.843,368.27C367.185,368.27 366.622,367.797 366.507,367.149L347.611,259.995C347.611,258.099 359.63,247.159 359.63,247.159C359.63,247.159 372.472,251.917 374.794,254.239Z"/>
                </g>
                <g transform="matrix(3.08618,0,0,3.08618,-630.572,-515.619)">
                    <path d="M341.3,262.844L359.609,366.678C359.755,367.508 359.116,368.27 358.273,368.27L352.171,368.27C351.601,368.27 351.091,367.914 350.897,367.377L318.452,278.242C318.452,271.831 323.877,260.132 323.877,260.132C323.877,260.132 339.541,261.086 341.3,262.844Z"/>
                </g>
                <g transform="matrix(-3.08618,0,0,3.08618,1702.6,-515.619)">
                    <path d="M341.3,262.844L359.609,366.678C359.755,367.508 359.116,368.27 358.273,368.27L352.171,368.27C351.601,368.27 351.091,367.914 350.897,367.377L318.452,278.242C318.452,271.831 323.877,260.132 323.877,260.132C323.877,260.132 339.541,261.086 341.3,262.844Z"/>
                </g>
                <g transform="matrix(3.08618,0,0,3.08618,-630.572,-515.619)">
                    <path d="M313.062,283.069L343.412,366.45C343.733,367.334 343.079,368.27 342.136,368.27L338.932,368.27C338.912,368.27 338.891,368.269 338.87,368.268L307.994,305.08L303.252,295.121C303.166,294.938 303.046,294.787 302.906,294.668L302.521,293.881C301.893,290.424 302.6,279.61 302.6,279.61C302.6,279.61 311.988,281.995 313.062,283.069Z"/>
                </g>
                <g transform="matrix(-3.08618,0,0,3.08618,1702.6,-515.619)">
                    <path d="M313.062,283.069L343.412,366.45C343.733,367.334 343.079,368.27 342.136,368.27L338.932,368.27C338.912,368.27 338.891,368.269 338.87,368.268L307.994,305.08L303.252,295.121C303.166,294.938 303.046,294.787 302.906,294.668L302.521,293.881C301.893,290.424 302.6,279.61 302.6,279.61C302.6,279.61 310.189,282.077 313.062,283.069Z"/>
                </g>
            </g>
        </g>
        <g id="Player-Even-RS" serif:id="Player Even RS">
            <g id="Player3" serif:id="Player" transform="matrix(0.916516,0,0,0.916516,47247.9,-12961.7)">
                <path d="M17764,25569.6C17764,25058 17136.2,24642.6 16624.6,24642.6C16102.7,24965 15494.4,25186.7 14929.4,25186.7C14364.3,25186.7 13727.1,24922.5 13234.1,24642.6C12722.5,24642.6 12094.7,25058 12094.7,25569.6L12094.7,27423.5C12094.7,27935.1 12510.1,28350.4 13021.7,28350.4L16837,28350.4C17348.6,28350.4 17764,27935.1 17764,27423.5L17764,25569.6ZM14929.4,21252.1C15865,21252.1 16624.6,22011.7 16624.6,22947.3C16624.6,23883 15865,24642.6 14929.4,24642.6C13993.7,24642.6 13234.1,23883 13234.1,22947.3C13234.1,22011.7 13993.7,21252.1 14929.4,21252.1Z" style="fill:rgb(10,36,99);"/>
            </g>
            <g id="Shuttlecock3" serif:id="Shuttlecock" transform="matrix(5.73003,0,0,5.73003,53922.1,6653.66)">
                <g transform="matrix(3.21243,0,0,3.35243,-678.074,-621.806)">
                    <path d="M415.23,381.548L340.384,381.548L340.384,404.812C340.384,422.099 355.008,436.112 373.048,436.112C376.568,436.112 380.145,436.112 383.651,436.112C401.092,436.112 415.23,422.564 415.23,405.852C415.23,393.273 415.23,381.548 415.23,381.548Z"/>
                </g>
                <g transform="matrix(3.08618,0,0,3.08618,-630.572,-515.619)">
                    <path d="M374.794,254.239C374.575,254.517 374.646,256.422 374.646,256.965L374.646,366.914C374.646,367.663 374.039,368.27 373.29,368.27L367.843,368.27C367.185,368.27 366.622,367.797 366.507,367.149L347.611,259.995C347.611,258.099 359.63,247.159 359.63,247.159C359.63,247.159 372.472,251.917 374.794,254.239Z"/>
                </g>
                <g transform="matrix(-3.08618,0,0,3.08618,1701.88,-515.619)">
                    <path d="M374.794,254.239C374.575,254.517 374.646,256.422 374.646,256.965L374.646,366.914C374.646,367.663 374.039,368.27 373.29,368.27L367.843,368.27C367.185,368.27 366.622,367.797 366.507,367.149L347.611,259.995C347.611,258.099 359.63,247.159 359.63,247.159C359.63,247.159 372.472,251.917 374.794,254.239Z"/>
                </g>
                <g transform="matrix(3.08618,0,0,3.08618,-630.572,-515.619)">
                    <path d="M341.3,262.844L359.609,366.678C359.755,367.508 359.116,368.27 358.273,368.27L352.171,368.27C351.601,368.27 351.091,367.914 350.897,367.377L318.452,278.242C318.452,271.831 323.877,260.132 323.877,260.132C323.877,260.132 339.541,261.086 341.3,262.844Z"/>
                </g>
                <g transform="matrix(-3.08618,0,0,3.08618,1702.6,-515.619)">
                    <path d="M341.3,262.844L359.609,366.678C359.755,367.508 359.116,368.27 358.273,368.27L352.171,368.27C351.601,368.27 351.091,367.914 350.897,367.377L318.452,278.242C318.452,271.831 323.877,260.132 323.877,260.132C323.877,260.132 339.541,261.086 341.3,262.844Z"/>
                </g>
                <g transform="matrix(3.08618,0,0,3.08618,-630.572,-515.619)">
                    <path d="M313.062,283.069L343.412,366.45C343.733,367.334 343.079,368.27 342.136,368.27L338.932,368.27C338.912,368.27 338.891,368.269 338.87,368.268L307.994,305.08L303.252,295.121C303.166,294.938 303.046,294.787 302.906,294.668L302.521,293.881C301.893,290.424 302.6,279.61 302.6,279.61C302.6,279.61 311.988,281.995 313.062,283.069Z"/>
                </g>
                <g transform="matrix(-3.08618,0,0,3.08618,1702.6,-515.619)">
                    <path d="M313.062,283.069L343.412,366.45C343.733,367.334 343.079,368.27 342.136,368.27L338.932,368.27C338.912,368.27 338.891,368.269 338.87,368.268L307.994,305.08L303.252,295.121C303.166,294.938 303.046,294.787 302.906,294.668L302.521,293.881C301.893,290.424 302.6,279.61 302.6,279.61C302.6,279.61 310.189,282.077 313.062,283.069Z"/>
                </g>
            </g>
        </g>
    </g>
</svg>
